<?xml version="1.0" standalone="no"?>
<!DOCTYPE svg PUBLIC "-//W3C//DTD SVG 20010904//EN"
 "http://www.w3.org/TR/2001/REC-SVG-20010904/DTD/svg10.dtd">
<svg version="1.0" xmlns="http://www.w3.org/2000/svg"
 width="512.000000pt" height="512.000000pt" viewBox="0 0 512.000000 512.000000"
 preserveAspectRatio="xMidYMid meet">

<g transform="translate(0.000000,512.000000) scale(0.100000,-0.100000)"
fill="#000000" stroke="none">
<path d="M2470 4934 c-66 -12 -156 -54 -319 -147 -1412 -812 -1495 -861 -1562
-927 -72 -71 -119 -152 -144 -247 -22 -86 -22 -2020 0 -2106 25 -95 72 -176
144 -247 59 -58 129 -101 621 -384 305 -176 681 -393 836 -482 154 -89 307
-172 340 -184 79 -31 251 -34 334 -6 30 10 435 237 900 505 766 441 851 492
911 551 72 71 119 152 144 247 22 86 22 2020 0 2106 -25 95 -72 176 -144 247
-60 59 -145 110 -911 551 -465 268 -867 494 -895 503 -49 17 -206 29 -255 20z
m167 -217 c33 -9 333 -177 870 -486 823 -475 860 -497 852 -505 -2 -2 -406
-236 -898 -520 -560 -324 -901 -515 -910 -511 -9 3 -415 236 -903 518 -835
481 -886 513 -870 529 33 32 1657 962 1702 974 60 17 95 17 157 1z m-1053
-1712 l866 -500 0 -1042 c0 -782 -3 -1043 -12 -1043 -21 0 -1650 945 -1693
983 -24 21 -56 63 -72 95 l-28 57 -3 980 c-1 539 0 985 3 993 6 17 -67 58 939
-523z m2894 -472 l-3 -978 -28 -57 c-16 -32 -47 -74 -70 -94 -44 -37 -1672
-983 -1694 -984 -10 0 -13 215 -13 1043 l1 1042 897 517 c681 392 899 513 905
503 4 -8 6 -454 5 -992z"/>
<path d="M2460 3910 c-225 -48 -292 -203 -130 -302 151 -92 419 -70 514 42
101 121 -29 253 -259 265 -44 2 -100 0 -125 -5z"/>
<path d="M964 3010 c-68 -27 -80 -149 -26 -265 41 -86 91 -148 145 -179 59
-34 91 -39 132 -22 103 44 76 250 -52 387 -69 75 -140 103 -199 79z"/>
<path d="M1423 2205 c-89 -38 -84 -199 10 -336 70 -103 170 -157 238 -129 104
43 73 262 -57 395 -68 71 -135 95 -191 70z"/>
<path d="M1857 1389 c-80 -62 -44 -248 71 -371 85 -92 165 -112 224 -59 32 28
33 32 33 108 0 68 -4 87 -32 144 -79 159 -216 242 -296 178z"/>
<path d="M3965 2851 c-56 -25 -130 -109 -168 -189 -27 -55 -32 -79 -32 -137 0
-84 19 -120 74 -136 110 -33 281 147 298 314 14 134 -62 199 -172 148z"/>
<path d="M3200 2410 c-45 -23 -122 -105 -149 -158 -12 -23 -28 -67 -36 -99
-55 -208 116 -277 264 -108 106 122 135 330 52 375 -30 16 -92 11 -131 -10z"/>
<path d="M3963 1979 c-113 -56 -217 -246 -198 -360 8 -49 46 -95 84 -104 74
-16 189 74 252 196 30 57 33 73 34 147 0 82 -1 84 -33 113 -39 35 -80 38 -139
8z"/>
<path d="M3189 1532 c-98 -63 -169 -182 -177 -298 -7 -108 24 -154 103 -154
138 0 300 240 265 393 -19 88 -104 114 -191 59z"/>
</g>
</svg>
